<mxfile host="app.diagrams.net" modified="2023-10-14T20:06:01.640Z" agent="Mozilla/5.0 (Windows NT 10.0; Win64; x64) AppleWebKit/537.36 (KHTML, like Gecko) Chrome/118.0.0.0 Safari/537.36 Edg/118.0.2088.46" etag="HN2ug6iWAdsZEJjlIL53" version="22.0.4" type="github">
  <diagram name="Page-1" id="c4acf3e9-155e-7222-9cf6-157b1a14988f">
    <mxGraphModel dx="1772" dy="2673" grid="1" gridSize="10" guides="1" tooltips="1" connect="1" arrows="1" fold="1" page="1" pageScale="1" pageWidth="850" pageHeight="1100" background="none" math="0" shadow="0">
      <root>
        <mxCell id="0" />
        <mxCell id="1" parent="0" />
        <mxCell id="fE5P6bQsII-2qxmfbAFM-50" value="ADMINISTRADOR" style="swimlane;fontStyle=1;align=center;verticalAlign=top;childLayout=stackLayout;horizontal=1;startSize=26;horizontalStack=0;resizeParent=1;resizeParentMax=0;resizeLast=0;collapsible=1;marginBottom=0;whiteSpace=wrap;html=1;" vertex="1" parent="1">
          <mxGeometry x="360" y="-2120" width="160" height="150" as="geometry" />
        </mxCell>
        <mxCell id="fE5P6bQsII-2qxmfbAFM-51" value="- nome&lt;br&gt;- perfil&lt;br&gt;- unidade&lt;br&gt;- enviar mensagem" style="text;strokeColor=none;fillColor=none;align=left;verticalAlign=top;spacingLeft=4;spacingRight=4;overflow=hidden;rotatable=0;points=[[0,0.5],[1,0.5]];portConstraint=eastwest;whiteSpace=wrap;html=1;" vertex="1" parent="fE5P6bQsII-2qxmfbAFM-50">
          <mxGeometry y="26" width="160" height="74" as="geometry" />
        </mxCell>
        <mxCell id="fE5P6bQsII-2qxmfbAFM-52" value="" style="line;strokeWidth=1;fillColor=none;align=left;verticalAlign=middle;spacingTop=-1;spacingLeft=3;spacingRight=3;rotatable=0;labelPosition=right;points=[];portConstraint=eastwest;strokeColor=inherit;" vertex="1" parent="fE5P6bQsII-2qxmfbAFM-50">
          <mxGeometry y="100" width="160" height="8" as="geometry" />
        </mxCell>
        <mxCell id="fE5P6bQsII-2qxmfbAFM-53" value="+ gerar-informativos()&lt;br&gt;+ gerar-relatorios()" style="text;strokeColor=none;fillColor=none;align=left;verticalAlign=top;spacingLeft=4;spacingRight=4;overflow=hidden;rotatable=0;points=[[0,0.5],[1,0.5]];portConstraint=eastwest;whiteSpace=wrap;html=1;" vertex="1" parent="fE5P6bQsII-2qxmfbAFM-50">
          <mxGeometry y="108" width="160" height="42" as="geometry" />
        </mxCell>
        <mxCell id="fE5P6bQsII-2qxmfbAFM-55" value="INTEGRACAO" style="swimlane;fontStyle=1;align=center;verticalAlign=top;childLayout=stackLayout;horizontal=1;startSize=26;horizontalStack=0;resizeParent=1;resizeParentMax=0;resizeLast=0;collapsible=1;marginBottom=0;whiteSpace=wrap;html=1;" vertex="1" parent="1">
          <mxGeometry x="20" y="-2080" width="160" height="130" as="geometry" />
        </mxCell>
        <mxCell id="fE5P6bQsII-2qxmfbAFM-56" value="-tipoDoSistema: varchar" style="text;strokeColor=none;fillColor=none;align=left;verticalAlign=top;spacingLeft=4;spacingRight=4;overflow=hidden;rotatable=0;points=[[0,0.5],[1,0.5]];portConstraint=eastwest;whiteSpace=wrap;html=1;" vertex="1" parent="fE5P6bQsII-2qxmfbAFM-55">
          <mxGeometry y="26" width="160" height="26" as="geometry" />
        </mxCell>
        <mxCell id="fE5P6bQsII-2qxmfbAFM-57" value="" style="line;strokeWidth=1;fillColor=none;align=left;verticalAlign=middle;spacingTop=-1;spacingLeft=3;spacingRight=3;rotatable=0;labelPosition=right;points=[];portConstraint=eastwest;strokeColor=inherit;" vertex="1" parent="fE5P6bQsII-2qxmfbAFM-55">
          <mxGeometry y="52" width="160" height="8" as="geometry" />
        </mxCell>
        <mxCell id="fE5P6bQsII-2qxmfbAFM-58" value="+ sincronizar-dados()&lt;br&gt;+ integrar-sistemas()&lt;br&gt;+ gerar-relatorios()&lt;br&gt;+ enviar-mensagens()" style="text;strokeColor=none;fillColor=none;align=left;verticalAlign=top;spacingLeft=4;spacingRight=4;overflow=hidden;rotatable=0;points=[[0,0.5],[1,0.5]];portConstraint=eastwest;whiteSpace=wrap;html=1;" vertex="1" parent="fE5P6bQsII-2qxmfbAFM-55">
          <mxGeometry y="60" width="160" height="70" as="geometry" />
        </mxCell>
        <mxCell id="fE5P6bQsII-2qxmfbAFM-59" value="CONDOMINOS" style="swimlane;fontStyle=1;align=center;verticalAlign=top;childLayout=stackLayout;horizontal=1;startSize=26;horizontalStack=0;resizeParent=1;resizeParentMax=0;resizeLast=0;collapsible=1;marginBottom=0;whiteSpace=wrap;html=1;" vertex="1" parent="1">
          <mxGeometry x="640" y="-2120" width="160" height="180" as="geometry" />
        </mxCell>
        <mxCell id="fE5P6bQsII-2qxmfbAFM-60" value="- nome&lt;br style=&quot;border-color: var(--border-color);&quot;&gt;- perfil&lt;br style=&quot;border-color: var(--border-color);&quot;&gt;- unidade&lt;br&gt;- enviar mensagens" style="text;strokeColor=none;fillColor=none;align=left;verticalAlign=top;spacingLeft=4;spacingRight=4;overflow=hidden;rotatable=0;points=[[0,0.5],[1,0.5]];portConstraint=eastwest;whiteSpace=wrap;html=1;" vertex="1" parent="fE5P6bQsII-2qxmfbAFM-59">
          <mxGeometry y="26" width="160" height="74" as="geometry" />
        </mxCell>
        <mxCell id="fE5P6bQsII-2qxmfbAFM-61" value="" style="line;strokeWidth=1;fillColor=none;align=left;verticalAlign=middle;spacingTop=-1;spacingLeft=3;spacingRight=3;rotatable=0;labelPosition=right;points=[];portConstraint=eastwest;strokeColor=inherit;" vertex="1" parent="fE5P6bQsII-2qxmfbAFM-59">
          <mxGeometry y="100" width="160" height="8" as="geometry" />
        </mxCell>
        <mxCell id="fE5P6bQsII-2qxmfbAFM-62" value="+ visualizar-informacoes()&lt;br&gt;+ realizar-pagamentos()&lt;br&gt;+ solicitar-manutencoes()&lt;br&gt;+ reservar-areas()" style="text;strokeColor=none;fillColor=none;align=left;verticalAlign=top;spacingLeft=4;spacingRight=4;overflow=hidden;rotatable=0;points=[[0,0.5],[1,0.5]];portConstraint=eastwest;whiteSpace=wrap;html=1;" vertex="1" parent="fE5P6bQsII-2qxmfbAFM-59">
          <mxGeometry y="108" width="160" height="72" as="geometry" />
        </mxCell>
        <mxCell id="fE5P6bQsII-2qxmfbAFM-63" value="MANUTENCAO" style="swimlane;fontStyle=1;align=center;verticalAlign=top;childLayout=stackLayout;horizontal=1;startSize=26;horizontalStack=0;resizeParent=1;resizeParentMax=0;resizeLast=0;collapsible=1;marginBottom=0;whiteSpace=wrap;html=1;" vertex="1" parent="1">
          <mxGeometry x="560" y="-1860" width="160" height="80" as="geometry" />
        </mxCell>
        <mxCell id="fE5P6bQsII-2qxmfbAFM-66" value="- data()&lt;br&gt;- descricao()&lt;br&gt;- status()" style="text;strokeColor=none;fillColor=none;align=left;verticalAlign=top;spacingLeft=4;spacingRight=4;overflow=hidden;rotatable=0;points=[[0,0.5],[1,0.5]];portConstraint=eastwest;whiteSpace=wrap;html=1;" vertex="1" parent="fE5P6bQsII-2qxmfbAFM-63">
          <mxGeometry y="26" width="160" height="54" as="geometry" />
        </mxCell>
        <mxCell id="fE5P6bQsII-2qxmfbAFM-71" value="&lt;b&gt;ESPACO&lt;/b&gt;" style="swimlane;fontStyle=0;childLayout=stackLayout;horizontal=1;startSize=26;fillColor=none;horizontalStack=0;resizeParent=1;resizeParentMax=0;resizeLast=0;collapsible=1;marginBottom=0;whiteSpace=wrap;html=1;" vertex="1" parent="1">
          <mxGeometry x="250" y="-1860" width="140" height="70" as="geometry" />
        </mxCell>
        <mxCell id="fE5P6bQsII-2qxmfbAFM-74" value="- data()&lt;br&gt;- area()" style="text;strokeColor=none;fillColor=none;align=left;verticalAlign=top;spacingLeft=4;spacingRight=4;overflow=hidden;rotatable=0;points=[[0,0.5],[1,0.5]];portConstraint=eastwest;whiteSpace=wrap;html=1;" vertex="1" parent="fE5P6bQsII-2qxmfbAFM-71">
          <mxGeometry y="26" width="140" height="44" as="geometry" />
        </mxCell>
        <mxCell id="fE5P6bQsII-2qxmfbAFM-81" value="" style="endArrow=open;endFill=1;endSize=12;html=1;rounded=0;entryX=0.014;entryY=0.802;entryDx=0;entryDy=0;entryPerimeter=0;exitX=0.998;exitY=0.033;exitDx=0;exitDy=0;exitPerimeter=0;" edge="1" parent="1">
          <mxGeometry width="160" relative="1" as="geometry">
            <mxPoint x="180.00000000000006" y="-1998.02" as="sourcePoint" />
            <mxPoint x="642.5600000000003" y="-2014.652" as="targetPoint" />
            <Array as="points">
              <mxPoint x="240.32" y="-2140" />
              <mxPoint x="550.32" y="-2140" />
            </Array>
          </mxGeometry>
        </mxCell>
        <mxCell id="fE5P6bQsII-2qxmfbAFM-83" value="" style="endArrow=open;endFill=1;endSize=12;html=1;rounded=0;exitX=1;exitY=0.5;exitDx=0;exitDy=0;entryX=-0.007;entryY=0.61;entryDx=0;entryDy=0;entryPerimeter=0;" edge="1" parent="1" source="fE5P6bQsII-2qxmfbAFM-58" target="fE5P6bQsII-2qxmfbAFM-51">
          <mxGeometry width="160" relative="1" as="geometry">
            <mxPoint x="200" y="-2055.42" as="sourcePoint" />
            <mxPoint x="360" y="-2055.42" as="targetPoint" />
          </mxGeometry>
        </mxCell>
        <mxCell id="fE5P6bQsII-2qxmfbAFM-84" value="" style="endArrow=open;endFill=1;endSize=12;html=1;rounded=0;entryX=1.004;entryY=0.193;entryDx=0;entryDy=0;exitX=0.472;exitY=1.008;exitDx=0;exitDy=0;exitPerimeter=0;entryPerimeter=0;" edge="1" parent="1" source="fE5P6bQsII-2qxmfbAFM-53" target="fE5P6bQsII-2qxmfbAFM-74">
          <mxGeometry width="160" relative="1" as="geometry">
            <mxPoint x="340" y="-1990" as="sourcePoint" />
            <mxPoint x="500" y="-1990" as="targetPoint" />
            <Array as="points">
              <mxPoint x="436" y="-1826" />
            </Array>
          </mxGeometry>
        </mxCell>
        <mxCell id="fE5P6bQsII-2qxmfbAFM-85" value="" style="endArrow=open;endFill=1;endSize=12;html=1;rounded=0;entryX=1.021;entryY=0.723;entryDx=0;entryDy=0;entryPerimeter=0;exitX=0.394;exitY=1.039;exitDx=0;exitDy=0;exitPerimeter=0;" edge="1" parent="1" source="fE5P6bQsII-2qxmfbAFM-62" target="fE5P6bQsII-2qxmfbAFM-74">
          <mxGeometry width="160" relative="1" as="geometry">
            <mxPoint x="650" y="-1960" as="sourcePoint" />
            <mxPoint x="810" y="-1960" as="targetPoint" />
            <Array as="points">
              <mxPoint x="703" y="-1920" />
              <mxPoint x="450" y="-1920" />
              <mxPoint x="450" y="-1800" />
            </Array>
          </mxGeometry>
        </mxCell>
        <mxCell id="fE5P6bQsII-2qxmfbAFM-86" value="" style="endArrow=open;endFill=1;endSize=12;html=1;rounded=0;entryX=0;entryY=0.5;entryDx=0;entryDy=0;exitX=0.92;exitY=0.994;exitDx=0;exitDy=0;exitPerimeter=0;" edge="1" parent="1" source="fE5P6bQsII-2qxmfbAFM-53" target="fE5P6bQsII-2qxmfbAFM-66">
          <mxGeometry width="160" relative="1" as="geometry">
            <mxPoint x="510" y="-1930" as="sourcePoint" />
            <mxPoint x="660" y="-1940" as="targetPoint" />
            <Array as="points">
              <mxPoint x="510" y="-1807" />
            </Array>
          </mxGeometry>
        </mxCell>
        <mxCell id="fE5P6bQsII-2qxmfbAFM-87" value="" style="endArrow=open;endFill=1;endSize=12;html=1;rounded=0;exitX=0.857;exitY=1.039;exitDx=0;exitDy=0;exitPerimeter=0;entryX=1;entryY=0.5;entryDx=0;entryDy=0;" edge="1" parent="1" source="fE5P6bQsII-2qxmfbAFM-62" target="fE5P6bQsII-2qxmfbAFM-66">
          <mxGeometry width="160" relative="1" as="geometry">
            <mxPoint x="640" y="-1960" as="sourcePoint" />
            <mxPoint x="780" y="-1840" as="targetPoint" />
            <Array as="points">
              <mxPoint x="777" y="-1807" />
            </Array>
          </mxGeometry>
        </mxCell>
        <mxCell id="fE5P6bQsII-2qxmfbAFM-88" value="&lt;b&gt;&lt;i&gt;&lt;u&gt;&lt;font color=&quot;#ffff33&quot; style=&quot;font-size: 20px; background-color: rgb(255, 0, 0);&quot;&gt;SAVECONDO&amp;nbsp;&lt;/font&gt;&lt;/u&gt;&lt;/i&gt;&lt;/b&gt;" style="text;html=1;strokeColor=none;fillColor=none;align=center;verticalAlign=middle;whiteSpace=wrap;rounded=0;" vertex="1" parent="1">
          <mxGeometry x="50" y="-2200" width="150" height="30" as="geometry" />
        </mxCell>
        <mxCell id="fE5P6bQsII-2qxmfbAFM-89" value="Gestão de Condomínios - Comerciais e Residenciais" style="text;html=1;strokeColor=none;fillColor=none;align=center;verticalAlign=middle;whiteSpace=wrap;rounded=0;" vertex="1" parent="1">
          <mxGeometry x="-10" y="-2180" width="300" height="30" as="geometry" />
        </mxCell>
      </root>
    </mxGraphModel>
  </diagram>
</mxfile>
